<svg xmlns="http://www.w3.org/2000/svg" xmlns:xlink="http://www.w3.org/1999/xlink" width="200" zoomAndPan="magnify" viewBox="0 0 150 37.5" height="50" preserveAspectRatio="xMidYMid meet" version="1.0"><path fill="#bc9c22" d="M 58.453125 1.460938 L 64.332031 1.460938 L 64.332031 21.625 C 64.332031 26.875 62.878906 30.757812 59.976562 33.28125 C 57.734375 35.308594 54.792969 36.324219 51.152344 36.324219 C 47.234375 36.324219 44.328125 34.890625 42.441406 32.019531 L 43.4375 31.445312 C 44.171875 32.667969 45.136719 33.613281 46.324219 34.273438 C 47.515625 34.941406 48.773438 35.273438 50.105469 35.273438 C 52.484375 35.273438 54.464844 34.539062 56.039062 33.070312 C 57.648438 31.597656 58.453125 28.816406 58.453125 24.722656 Z M 58.453125 1.460938 " fill-opacity="1" fill-rule="nonzero"/><path fill="#bc9c22" d="M 89.214844 24.300781 L 98.984375 1.460938 L 104.914062 1.460938 L 104.914062 36.007812 L 98.984375 36.007812 L 98.984375 4.144531 L 86.589844 33.070312 L 73.726562 3.824219 L 73.726562 36.007812 L 72.675781 36.007812 L 72.675781 1.460938 L 79.136719 1.460938 Z M 89.214844 24.300781 " fill-opacity="1" fill-rule="nonzero"/><path fill="#ffffff" d="M 32.578125 17.199219 C 32.519531 17.199219 32.46875 17.175781 32.425781 17.136719 C 32.382812 17.09375 32.363281 17.042969 32.363281 16.980469 C 32.363281 16.871094 32.414062 16.804688 32.511719 16.777344 C 32.898438 16.636719 33.324219 16.511719 33.785156 16.394531 C 34.242188 16.277344 34.722656 16.167969 35.21875 16.066406 C 35.71875 15.96875 36.222656 15.878906 36.730469 15.800781 C 37.242188 15.71875 37.742188 15.652344 38.230469 15.597656 C 38.726562 15.542969 39.195312 15.5 39.644531 15.472656 C 40.089844 15.441406 40.496094 15.425781 40.867188 15.425781 C 41.902344 15.425781 42.714844 15.515625 43.300781 15.699219 C 43.886719 15.875 44.207031 16.136719 44.265625 16.480469 L 44.269531 16.519531 C 44.269531 16.578125 44.246094 16.628906 44.203125 16.671875 C 44.164062 16.714844 44.113281 16.734375 44.054688 16.734375 C 44 16.734375 43.953125 16.71875 43.910156 16.683594 C 43.867188 16.644531 43.84375 16.601562 43.839844 16.546875 C 43.816406 16.414062 43.675781 16.296875 43.417969 16.195312 C 43.160156 16.089844 42.8125 16.003906 42.375 15.945312 C 41.9375 15.886719 41.433594 15.855469 40.867188 15.855469 C 40.5 15.855469 40.097656 15.871094 39.660156 15.898438 C 39.222656 15.925781 38.761719 15.96875 38.277344 16.027344 C 37.792969 16.082031 37.300781 16.148438 36.796875 16.226562 C 36.292969 16.300781 35.796875 16.390625 35.308594 16.488281 C 34.816406 16.589844 34.347656 16.699219 33.894531 16.8125 C 33.445312 16.929688 33.03125 17.050781 32.648438 17.183594 C 32.628906 17.191406 32.605469 17.199219 32.578125 17.199219 Z M 31.097656 25.605469 C 31.035156 25.605469 30.984375 25.585938 30.941406 25.542969 C 30.902344 25.5 30.882812 25.449219 30.882812 25.390625 C 30.882812 25.371094 30.882812 25.351562 30.890625 25.324219 C 31.113281 24.570312 32.003906 23.285156 33.5625 21.457031 C 33.585938 21.441406 33.59375 21.429688 33.585938 21.421875 C 33.582031 21.414062 33.566406 21.414062 33.539062 21.417969 C 33.226562 21.46875 32.921875 21.527344 32.621094 21.59375 C 32.324219 21.65625 32.042969 21.722656 31.773438 21.796875 C 31.75 21.804688 31.730469 21.804688 31.714844 21.804688 C 31.652344 21.804688 31.601562 21.785156 31.5625 21.746094 C 31.519531 21.703125 31.5 21.652344 31.5 21.589844 C 31.5 21.542969 31.515625 21.5 31.542969 21.457031 C 31.574219 21.417969 31.613281 21.394531 31.660156 21.382812 C 31.988281 21.289062 32.347656 21.203125 32.738281 21.125 C 33.132812 21.046875 33.546875 20.980469 33.980469 20.917969 C 34.023438 20.910156 34.058594 20.890625 34.089844 20.863281 C 34.609375 20.269531 35.1875 19.632812 35.824219 18.957031 C 36.457031 18.273438 37.140625 17.5625 37.875 16.8125 C 37.917969 16.769531 37.972656 16.746094 38.03125 16.746094 C 38.089844 16.746094 38.140625 16.769531 38.179688 16.8125 C 38.222656 16.855469 38.246094 16.90625 38.246094 16.964844 C 38.246094 17.011719 38.226562 17.0625 38.191406 17.113281 C 37.519531 17.796875 36.898438 18.441406 36.320312 19.058594 C 35.746094 19.671875 35.210938 20.25 34.722656 20.792969 C 34.703125 20.808594 34.699219 20.820312 34.703125 20.824219 C 34.707031 20.832031 34.726562 20.832031 34.753906 20.832031 C 35.351562 20.769531 35.925781 20.734375 36.480469 20.726562 C 37.03125 20.71875 37.527344 20.734375 37.96875 20.777344 C 38.027344 20.785156 38.074219 20.808594 38.109375 20.855469 C 38.148438 20.894531 38.171875 20.941406 38.171875 21 C 38.171875 21.058594 38.148438 21.109375 38.105469 21.152344 C 38.066406 21.195312 38.015625 21.214844 37.957031 21.214844 L 37.9375 21.214844 C 37.597656 21.175781 37.226562 21.160156 36.832031 21.160156 C 36.433594 21.15625 36.023438 21.167969 35.597656 21.195312 C 35.175781 21.222656 34.75 21.257812 34.328125 21.308594 C 34.273438 21.320312 34.238281 21.339844 34.21875 21.371094 C 33.363281 22.355469 32.6875 23.1875 32.199219 23.871094 C 31.710938 24.554688 31.414062 25.078125 31.308594 25.453125 C 31.289062 25.496094 31.261719 25.53125 31.222656 25.558594 C 31.1875 25.589844 31.144531 25.605469 31.097656 25.605469 Z M 31.097656 25.605469 " fill-opacity="1" fill-rule="nonzero"/><path fill="#ffffff" d="M 40.046875 20.988281 C 39.988281 20.988281 39.9375 20.96875 39.894531 20.929688 C 39.851562 20.886719 39.832031 20.832031 39.832031 20.773438 C 39.832031 20.726562 39.847656 20.683594 39.878906 20.644531 L 40.230469 20.179688 C 40.273438 20.128906 40.328125 20.105469 40.394531 20.105469 C 40.457031 20.105469 40.507812 20.125 40.550781 20.167969 C 40.59375 20.210938 40.617188 20.261719 40.617188 20.320312 C 40.617188 20.367188 40.597656 20.410156 40.5625 20.457031 C 40.535156 20.484375 40.5 20.53125 40.453125 20.601562 C 40.40625 20.667969 40.359375 20.726562 40.316406 20.777344 C 40.296875 20.808594 40.277344 20.832031 40.257812 20.855469 C 40.242188 20.871094 40.230469 20.890625 40.222656 20.90625 C 40.175781 20.960938 40.121094 20.988281 40.046875 20.988281 Z M 38.308594 24.640625 C 38.054688 24.640625 37.859375 24.574219 37.71875 24.441406 C 37.574219 24.304688 37.503906 24.117188 37.503906 23.878906 C 37.503906 23.632812 37.652344 23.289062 37.945312 22.851562 C 38.234375 22.410156 38.644531 21.917969 39.171875 21.375 C 39.214844 21.332031 39.265625 21.308594 39.328125 21.308594 C 39.382812 21.308594 39.433594 21.332031 39.476562 21.375 C 39.523438 21.417969 39.546875 21.46875 39.546875 21.523438 C 39.546875 21.578125 39.527344 21.625 39.492188 21.667969 L 39.484375 21.675781 C 39.179688 21.988281 38.910156 22.289062 38.675781 22.582031 C 38.441406 22.875 38.261719 23.132812 38.132812 23.355469 C 38 23.582031 37.933594 23.753906 37.933594 23.878906 C 37.933594 23.996094 37.960938 24.082031 38.019531 24.136719 C 38.074219 24.183594 38.171875 24.210938 38.308594 24.210938 C 38.441406 24.210938 38.625 24.175781 38.859375 24.113281 C 39.09375 24.046875 39.355469 23.957031 39.648438 23.84375 C 39.945312 23.730469 40.257812 23.601562 40.582031 23.457031 C 40.910156 23.308594 41.242188 23.152344 41.570312 22.992188 C 41.902344 22.824219 42.21875 22.660156 42.519531 22.496094 C 42.820312 22.328125 43.089844 22.167969 43.328125 22.015625 C 43.375 21.996094 43.414062 21.988281 43.441406 21.988281 C 43.5 21.988281 43.546875 22.011719 43.59375 22.054688 C 43.636719 22.097656 43.65625 22.148438 43.65625 22.203125 C 43.65625 22.289062 43.621094 22.351562 43.554688 22.390625 C 43.3125 22.542969 43.039062 22.703125 42.730469 22.875 C 42.421875 23.042969 42.09375 23.210938 41.753906 23.378906 C 41.414062 23.550781 41.070312 23.710938 40.726562 23.863281 C 40.386719 24.011719 40.058594 24.148438 39.75 24.265625 C 39.4375 24.382812 39.15625 24.472656 38.90625 24.539062 C 38.65625 24.605469 38.460938 24.640625 38.308594 24.640625 Z M 38.308594 24.640625 " fill-opacity="1" fill-rule="nonzero"/><path fill="#ffffff" d="M 53.882812 18.082031 C 53.941406 18.089844 53.992188 18.113281 54.03125 18.152344 C 54.074219 18.195312 54.09375 18.242188 54.09375 18.300781 C 54.09375 18.363281 54.070312 18.414062 54.027344 18.457031 C 53.988281 18.5 53.9375 18.519531 53.878906 18.519531 L 53.863281 18.519531 C 52.734375 18.472656 51.578125 18.449219 50.386719 18.449219 C 49.199219 18.449219 48.003906 18.476562 46.808594 18.527344 C 45.695312 19.839844 44.59375 21.171875 43.507812 22.53125 C 42.429688 23.890625 41.390625 25.253906 40.390625 26.625 C 39.394531 27.992188 38.464844 29.351562 37.597656 30.703125 C 37.636719 30.757812 37.628906 30.832031 37.574219 30.925781 C 37.390625 31.238281 37.226562 31.390625 37.082031 31.390625 C 36.988281 31.390625 36.921875 31.359375 36.886719 31.300781 C 36.847656 31.246094 36.847656 31.167969 36.882812 31.066406 L 36.882812 31.058594 C 36.902344 30.992188 36.941406 30.921875 36.992188 30.84375 C 37.855469 29.484375 38.78125 28.113281 39.777344 26.730469 C 40.773438 25.351562 41.816406 23.972656 42.90625 22.601562 C 43.992188 21.226562 45.097656 19.878906 46.222656 18.550781 C 45.085938 18.605469 43.972656 18.679688 42.882812 18.773438 C 41.792969 18.863281 40.75 18.972656 39.753906 19.101562 L 39.726562 19.101562 C 39.667969 19.101562 39.617188 19.082031 39.578125 19.039062 C 39.53125 18.996094 39.511719 18.945312 39.511719 18.886719 C 39.511719 18.828125 39.53125 18.78125 39.566406 18.738281 C 39.605469 18.695312 39.648438 18.671875 39.703125 18.667969 C 40.765625 18.53125 41.878906 18.417969 43.046875 18.324219 C 44.210938 18.230469 45.394531 18.15625 46.597656 18.101562 C 47.328125 17.257812 48.074219 16.402344 48.839844 15.542969 C 49.605469 14.679688 50.386719 13.816406 51.191406 12.945312 C 51.230469 12.898438 51.28125 12.871094 51.351562 12.871094 C 51.410156 12.871094 51.460938 12.894531 51.5 12.9375 C 51.542969 12.976562 51.566406 13.027344 51.566406 13.089844 C 51.566406 13.152344 51.546875 13.199219 51.507812 13.230469 C 50.796875 14.003906 50.082031 14.796875 49.359375 15.609375 C 48.636719 16.417969 47.914062 17.242188 47.1875 18.078125 C 48.300781 18.039062 49.421875 18.019531 50.546875 18.019531 C 51.671875 18.019531 52.785156 18.039062 53.882812 18.082031 Z M 53.882812 18.082031 " fill-opacity="1" fill-rule="nonzero"/><path fill="#ffffff" d="M 46.125 24.472656 C 46.035156 24.472656 45.964844 24.441406 45.914062 24.375 C 45.859375 24.304688 45.84375 24.222656 45.863281 24.125 C 45.875 24.058594 45.929688 23.949219 46.03125 23.792969 C 46.132812 23.632812 46.265625 23.441406 46.429688 23.214844 C 46.59375 22.992188 46.785156 22.746094 47 22.480469 C 47.21875 22.214844 47.453125 21.945312 47.703125 21.675781 C 47.953125 21.402344 48.210938 21.140625 48.476562 20.890625 C 48.742188 20.636719 49.007812 20.410156 49.273438 20.210938 C 49.316406 20.183594 49.359375 20.167969 49.40625 20.167969 C 49.464844 20.167969 49.515625 20.191406 49.554688 20.234375 C 49.597656 20.277344 49.621094 20.328125 49.621094 20.386719 C 49.621094 20.457031 49.59375 20.515625 49.535156 20.558594 C 49.265625 20.761719 48.992188 20.992188 48.722656 21.246094 C 48.453125 21.503906 48.195312 21.765625 47.949219 22.035156 C 47.699219 22.304688 47.476562 22.558594 47.277344 22.804688 C 47.082031 23.046875 46.917969 23.253906 46.792969 23.425781 C 46.769531 23.460938 46.765625 23.488281 46.777344 23.503906 C 46.789062 23.519531 46.816406 23.511719 46.859375 23.484375 C 47.566406 22.976562 48.175781 22.558594 48.691406 22.238281 C 49.207031 21.914062 49.644531 21.675781 50 21.523438 C 50.359375 21.367188 50.652344 21.289062 50.878906 21.289062 C 51.035156 21.289062 51.15625 21.328125 51.242188 21.40625 C 51.332031 21.484375 51.378906 21.59375 51.378906 21.734375 C 51.378906 21.859375 51.355469 22.023438 51.3125 22.226562 C 51.269531 22.429688 51.222656 22.632812 51.175781 22.835938 C 51.136719 23.007812 51.097656 23.167969 51.066406 23.308594 C 51.035156 23.449219 51.019531 23.550781 51.019531 23.609375 C 51.019531 23.667969 51.035156 23.707031 51.070312 23.730469 C 51.105469 23.753906 51.164062 23.765625 51.253906 23.765625 C 51.480469 23.765625 51.75 23.726562 52.058594 23.644531 C 52.367188 23.5625 52.707031 23.445312 53.070312 23.292969 C 53.4375 23.140625 53.816406 22.957031 54.214844 22.742188 C 54.613281 22.527344 55.015625 22.289062 55.414062 22.027344 C 55.453125 22 55.492188 21.988281 55.535156 21.988281 C 55.59375 21.988281 55.644531 22.011719 55.6875 22.054688 C 55.730469 22.09375 55.753906 22.144531 55.753906 22.203125 C 55.753906 22.289062 55.71875 22.347656 55.648438 22.382812 C 55.226562 22.660156 54.808594 22.910156 54.394531 23.136719 C 53.976562 23.359375 53.578125 23.550781 53.191406 23.707031 C 52.808594 23.867188 52.449219 23.988281 52.121094 24.074219 C 51.792969 24.15625 51.503906 24.195312 51.253906 24.195312 C 51.046875 24.195312 50.882812 24.144531 50.765625 24.042969 C 50.644531 23.9375 50.585938 23.796875 50.585938 23.609375 C 50.585938 23.527344 50.601562 23.402344 50.636719 23.238281 C 50.675781 23.078125 50.714844 22.910156 50.753906 22.734375 C 50.800781 22.535156 50.847656 22.34375 50.886719 22.167969 C 50.925781 21.988281 50.949219 21.875 50.949219 21.820312 C 50.949219 21.757812 50.914062 21.726562 50.847656 21.726562 C 50.714844 21.726562 50.546875 21.765625 50.347656 21.84375 C 50.148438 21.921875 49.925781 22.027344 49.6875 22.15625 C 49.445312 22.285156 49.195312 22.429688 48.9375 22.59375 C 48.679688 22.753906 48.421875 22.921875 48.167969 23.09375 C 47.914062 23.265625 47.671875 23.433594 47.445312 23.597656 C 47.21875 23.753906 47.015625 23.898438 46.839844 24.027344 C 46.8125 24.050781 46.789062 24.070312 46.761719 24.089844 C 46.734375 24.105469 46.707031 24.125 46.683594 24.144531 C 46.511719 24.273438 46.386719 24.359375 46.308594 24.40625 C 46.230469 24.449219 46.167969 24.472656 46.125 24.472656 Z M 46.125 24.472656 " fill-opacity="1" fill-rule="nonzero"/><path fill="#ffffff" d="M 61.113281 21.988281 C 61.171875 21.988281 61.222656 22.011719 61.261719 22.054688 C 61.308594 22.09375 61.328125 22.144531 61.328125 22.203125 C 61.328125 22.277344 61.296875 22.335938 61.238281 22.378906 C 60.855469 22.660156 60.449219 22.914062 60.019531 23.144531 C 59.59375 23.378906 59.164062 23.582031 58.742188 23.761719 C 58.316406 23.9375 57.914062 24.082031 57.53125 24.199219 C 57.152344 24.320312 56.816406 24.410156 56.519531 24.46875 C 56.222656 24.53125 55.988281 24.5625 55.820312 24.5625 C 55.398438 24.5625 55.070312 24.484375 54.835938 24.332031 C 54.601562 24.175781 54.484375 23.957031 54.484375 23.671875 C 54.484375 23.480469 54.535156 23.28125 54.636719 23.070312 C 54.734375 22.859375 54.863281 22.652344 55.023438 22.449219 C 55.191406 22.246094 55.371094 22.0625 55.574219 21.894531 C 55.777344 21.730469 55.980469 21.597656 56.191406 21.5 C 56.398438 21.402344 56.601562 21.351562 56.792969 21.351562 C 56.957031 21.351562 57.089844 21.394531 57.195312 21.488281 C 57.296875 21.574219 57.347656 21.691406 57.347656 21.832031 C 57.347656 21.933594 57.3125 22.03125 57.242188 22.128906 C 57.171875 22.226562 57.078125 22.316406 56.960938 22.402344 C 56.839844 22.484375 56.714844 22.546875 56.574219 22.597656 C 56.4375 22.648438 56.300781 22.671875 56.160156 22.671875 C 55.882812 22.671875 55.660156 22.636719 55.492188 22.566406 C 55.3125 22.761719 55.167969 22.957031 55.066406 23.15625 C 54.964844 23.351562 54.917969 23.519531 54.917969 23.671875 C 54.917969 23.976562 55.21875 24.128906 55.820312 24.128906 C 55.976562 24.128906 56.195312 24.101562 56.476562 24.046875 C 56.757812 23.988281 57.078125 23.902344 57.4375 23.789062 C 57.796875 23.671875 58.179688 23.53125 58.585938 23.363281 C 58.992188 23.191406 59.398438 22.992188 59.808594 22.769531 C 60.222656 22.550781 60.613281 22.300781 60.988281 22.03125 C 61.015625 22.003906 61.058594 21.988281 61.113281 21.988281 Z M 56.917969 21.832031 C 56.917969 21.816406 56.910156 21.804688 56.894531 21.796875 C 56.882812 21.785156 56.847656 21.78125 56.792969 21.78125 C 56.667969 21.78125 56.519531 21.820312 56.355469 21.898438 C 56.191406 21.972656 56.023438 22.082031 55.855469 22.222656 C 55.9375 22.234375 56.039062 22.242188 56.160156 22.242188 C 56.3125 22.242188 56.445312 22.214844 56.558594 22.167969 C 56.667969 22.117188 56.757812 22.0625 56.820312 21.996094 C 56.886719 21.933594 56.917969 21.878906 56.917969 21.832031 Z M 56.917969 21.832031 " fill-opacity="1" fill-rule="nonzero"/><path fill="#ffffff" d="M 68.261719 21.988281 C 68.324219 21.988281 68.378906 22.011719 68.417969 22.054688 C 68.457031 22.09375 68.480469 22.144531 68.480469 22.203125 C 68.480469 22.3125 68.429688 22.382812 68.328125 22.410156 C 67.917969 22.542969 67.472656 22.683594 67.003906 22.824219 C 66.535156 22.964844 66.0625 23.105469 65.589844 23.246094 C 65.132812 23.378906 64.691406 23.511719 64.265625 23.636719 C 63.839844 23.761719 63.449219 23.882812 63.09375 24 C 63.074219 24.011719 63.0625 24.019531 63.058594 24.027344 C 62.917969 24.222656 62.742188 24.425781 62.535156 24.632812 C 62.328125 24.839844 62.101562 25.027344 61.855469 25.203125 C 61.613281 25.378906 61.363281 25.519531 61.109375 25.625 C 60.855469 25.734375 60.617188 25.789062 60.386719 25.789062 C 60.222656 25.789062 60.09375 25.753906 60 25.675781 C 59.90625 25.601562 59.859375 25.503906 59.859375 25.382812 C 59.859375 25.226562 59.980469 25.054688 60.222656 24.867188 C 60.46875 24.675781 60.808594 24.476562 61.25 24.269531 C 61.691406 24.0625 62.203125 23.855469 62.789062 23.652344 L 62.824219 23.628906 C 62.867188 23.574219 62.902344 23.515625 62.929688 23.460938 C 62.960938 23.402344 62.96875 23.363281 62.957031 23.34375 C 62.941406 23.316406 62.886719 23.304688 62.796875 23.316406 C 62.710938 23.324219 62.601562 23.339844 62.472656 23.363281 C 62.34375 23.382812 62.214844 23.40625 62.085938 23.425781 C 61.929688 23.457031 61.769531 23.480469 61.605469 23.503906 C 61.445312 23.523438 61.296875 23.535156 61.160156 23.535156 C 60.933594 23.535156 60.757812 23.492188 60.632812 23.402344 C 60.507812 23.316406 60.445312 23.191406 60.445312 23.027344 C 60.445312 22.863281 60.5 22.6875 60.613281 22.503906 C 60.726562 22.316406 60.875 22.132812 61.0625 21.949219 C 61.253906 21.765625 61.464844 21.601562 61.691406 21.453125 C 61.917969 21.308594 62.152344 21.1875 62.386719 21.097656 C 62.621094 21.007812 62.84375 20.960938 63.046875 20.960938 C 63.214844 20.960938 63.347656 21.007812 63.449219 21.09375 C 63.550781 21.175781 63.597656 21.292969 63.597656 21.433594 C 63.597656 21.480469 63.59375 21.523438 63.585938 21.5625 C 63.546875 21.722656 63.46875 21.878906 63.351562 22.039062 C 63.234375 22.195312 63.109375 22.316406 62.976562 22.394531 C 62.933594 22.414062 62.894531 22.425781 62.859375 22.425781 C 62.800781 22.425781 62.746094 22.402344 62.703125 22.363281 C 62.664062 22.324219 62.644531 22.273438 62.644531 22.207031 C 62.644531 22.125 62.679688 22.0625 62.75 22.027344 C 62.820312 21.984375 62.882812 21.929688 62.949219 21.863281 C 63.011719 21.792969 63.066406 21.722656 63.105469 21.652344 C 63.148438 21.574219 63.167969 21.511719 63.167969 21.457031 C 63.167969 21.4375 63.15625 21.421875 63.128906 21.410156 C 63.105469 21.398438 63.078125 21.394531 63.046875 21.394531 C 62.894531 21.394531 62.71875 21.429688 62.527344 21.503906 C 62.335938 21.582031 62.144531 21.679688 61.953125 21.800781 C 61.761719 21.921875 61.585938 22.054688 61.425781 22.199219 C 61.261719 22.339844 61.128906 22.480469 61.03125 22.621094 C 60.929688 22.757812 60.878906 22.882812 60.878906 22.988281 C 60.878906 23.03125 60.902344 23.0625 60.941406 23.082031 C 60.984375 23.097656 61.058594 23.105469 61.160156 23.105469 C 61.28125 23.105469 61.414062 23.09375 61.558594 23.074219 C 61.707031 23.054688 61.859375 23.027344 62.015625 23 C 62.15625 22.980469 62.300781 22.957031 62.441406 22.941406 C 62.585938 22.917969 62.714844 22.90625 62.824219 22.90625 C 63.011719 22.90625 63.152344 22.945312 63.246094 23.019531 C 63.34375 23.09375 63.386719 23.195312 63.378906 23.332031 C 63.371094 23.351562 63.367188 23.371094 63.363281 23.394531 C 63.363281 23.417969 63.359375 23.4375 63.351562 23.460938 C 63.667969 23.359375 64.007812 23.257812 64.367188 23.152344 C 64.726562 23.042969 65.097656 22.933594 65.472656 22.828125 C 65.945312 22.6875 66.414062 22.546875 66.878906 22.410156 C 67.347656 22.273438 67.78125 22.136719 68.191406 21.996094 C 68.21875 21.992188 68.242188 21.988281 68.261719 21.988281 Z M 60.472656 25.359375 C 60.621094 25.359375 60.792969 25.3125 60.996094 25.222656 C 61.203125 25.132812 61.417969 25.007812 61.644531 24.847656 C 61.871094 24.683594 62.085938 24.5 62.300781 24.289062 C 62.042969 24.394531 61.796875 24.5 61.554688 24.617188 C 61.316406 24.734375 61.101562 24.84375 60.910156 24.945312 C 60.71875 25.050781 60.566406 25.144531 60.457031 25.21875 C 60.40625 25.25 60.378906 25.28125 60.378906 25.316406 C 60.378906 25.34375 60.410156 25.359375 60.472656 25.359375 Z M 60.472656 25.359375 " fill-opacity="1" fill-rule="nonzero"/><path fill="#ffffff" d="M 75.421875 21.988281 C 75.484375 21.988281 75.535156 22.011719 75.574219 22.054688 C 75.617188 22.09375 75.636719 22.144531 75.636719 22.203125 C 75.636719 22.3125 75.585938 22.382812 75.488281 22.410156 C 75.074219 22.542969 74.632812 22.683594 74.160156 22.824219 C 73.691406 22.964844 73.21875 23.105469 72.75 23.246094 C 72.292969 23.378906 71.851562 23.511719 71.421875 23.636719 C 70.996094 23.761719 70.605469 23.882812 70.25 24 C 70.230469 24.011719 70.21875 24.019531 70.21875 24.027344 C 70.078125 24.222656 69.902344 24.425781 69.691406 24.632812 C 69.488281 24.839844 69.257812 25.027344 69.011719 25.203125 C 68.769531 25.378906 68.519531 25.519531 68.269531 25.625 C 68.015625 25.734375 67.773438 25.789062 67.546875 25.789062 C 67.378906 25.789062 67.25 25.753906 67.15625 25.675781 C 67.0625 25.601562 67.015625 25.503906 67.015625 25.382812 C 67.015625 25.226562 67.136719 25.054688 67.382812 24.867188 C 67.625 24.675781 67.96875 24.476562 68.410156 24.269531 C 68.847656 24.0625 69.359375 23.855469 69.945312 23.652344 L 69.984375 23.628906 C 70.023438 23.574219 70.058594 23.515625 70.085938 23.460938 C 70.117188 23.402344 70.125 23.363281 70.113281 23.34375 C 70.097656 23.316406 70.046875 23.304688 69.957031 23.316406 C 69.867188 23.324219 69.757812 23.339844 69.632812 23.363281 C 69.503906 23.382812 69.375 23.40625 69.242188 23.425781 C 69.085938 23.457031 68.925781 23.480469 68.765625 23.503906 C 68.601562 23.523438 68.453125 23.535156 68.320312 23.535156 C 68.089844 23.535156 67.914062 23.492188 67.789062 23.402344 C 67.664062 23.316406 67.601562 23.191406 67.601562 23.027344 C 67.601562 22.863281 67.660156 22.6875 67.769531 22.503906 C 67.882812 22.316406 68.035156 22.132812 68.222656 21.949219 C 68.410156 21.765625 68.621094 21.601562 68.847656 21.453125 C 69.078125 21.308594 69.308594 21.1875 69.542969 21.097656 C 69.78125 21.007812 70 20.960938 70.203125 20.960938 C 70.371094 20.960938 70.507812 21.007812 70.605469 21.09375 C 70.707031 21.175781 70.757812 21.292969 70.757812 21.433594 C 70.757812 21.480469 70.753906 21.523438 70.742188 21.5625 C 70.707031 21.722656 70.625 21.878906 70.507812 22.039062 C 70.390625 22.195312 70.265625 22.316406 70.132812 22.394531 C 70.09375 22.414062 70.054688 22.425781 70.015625 22.425781 C 69.957031 22.425781 69.90625 22.402344 69.863281 22.363281 C 69.820312 22.324219 69.800781 22.273438 69.800781 22.207031 C 69.800781 22.125 69.835938 22.0625 69.910156 22.027344 C 69.976562 21.984375 70.042969 21.929688 70.105469 21.863281 C 70.171875 21.792969 70.222656 21.722656 70.265625 21.652344 C 70.304688 21.574219 70.324219 21.511719 70.324219 21.457031 C 70.324219 21.4375 70.3125 21.421875 70.289062 21.410156 C 70.261719 21.398438 70.234375 21.394531 70.203125 21.394531 C 70.050781 21.394531 69.875 21.429688 69.683594 21.503906 C 69.492188 21.582031 69.300781 21.679688 69.113281 21.800781 C 68.921875 21.921875 68.742188 22.054688 68.582031 22.199219 C 68.417969 22.339844 68.289062 22.480469 68.1875 22.621094 C 68.085938 22.757812 68.039062 22.882812 68.039062 22.988281 C 68.039062 23.03125 68.058594 23.0625 68.097656 23.082031 C 68.140625 23.097656 68.214844 23.105469 68.320312 23.105469 C 68.4375 23.105469 68.570312 23.09375 68.71875 23.074219 C 68.863281 23.054688 69.015625 23.027344 69.171875 23 C 69.316406 22.980469 69.457031 22.957031 69.597656 22.941406 C 69.742188 22.917969 69.871094 22.90625 69.984375 22.90625 C 70.167969 22.90625 70.308594 22.945312 70.40625 23.019531 C 70.5 23.09375 70.546875 23.195312 70.535156 23.332031 C 70.53125 23.351562 70.523438 23.371094 70.523438 23.394531 C 70.523438 23.417969 70.519531 23.4375 70.507812 23.460938 C 70.828125 23.359375 71.164062 23.257812 71.527344 23.152344 C 71.882812 23.042969 72.253906 22.933594 72.632812 22.828125 C 73.101562 22.6875 73.570312 22.546875 74.039062 22.410156 C 74.503906 22.273438 74.941406 22.136719 75.351562 21.996094 C 75.375 21.992188 75.398438 21.988281 75.421875 21.988281 Z M 67.628906 25.359375 C 67.777344 25.359375 67.953125 25.3125 68.15625 25.222656 C 68.363281 25.132812 68.578125 25.007812 68.800781 24.847656 C 69.027344 24.683594 69.246094 24.5 69.457031 24.289062 C 69.203125 24.394531 68.953125 24.5 68.714844 24.617188 C 68.476562 24.734375 68.257812 24.84375 68.066406 24.945312 C 67.875 25.050781 67.726562 25.144531 67.617188 25.21875 C 67.5625 25.25 67.535156 25.28125 67.535156 25.316406 C 67.535156 25.34375 67.566406 25.359375 67.628906 25.359375 Z M 67.628906 25.359375 " fill-opacity="1" fill-rule="nonzero"/><path fill="#ffffff" d="M 91.4375 21.777344 C 91.496094 21.777344 91.546875 21.800781 91.585938 21.84375 C 91.632812 21.882812 91.652344 21.933594 91.652344 21.992188 C 91.652344 22.101562 91.601562 22.171875 91.503906 22.199219 C 90.597656 22.515625 89.757812 22.800781 88.984375 23.0625 C 88.21875 23.316406 87.511719 23.550781 86.871094 23.765625 L 86.273438 23.957031 C 86.273438 23.957031 86.273438 23.960938 86.273438 23.960938 C 86.289062 24.03125 86.296875 24.113281 86.296875 24.214844 C 86.296875 24.417969 86.230469 24.621094 86.101562 24.824219 C 85.972656 25.03125 85.796875 25.222656 85.574219 25.402344 C 85.347656 25.582031 85.089844 25.742188 84.800781 25.882812 C 84.507812 26.023438 84.199219 26.132812 83.871094 26.210938 C 83.546875 26.292969 83.21875 26.332031 82.886719 26.332031 C 82.480469 26.332031 82.164062 26.277344 81.929688 26.167969 C 81.699219 26.0625 81.585938 25.910156 81.585938 25.714844 C 81.585938 25.609375 81.617188 25.503906 81.683594 25.40625 C 81.75 25.308594 81.871094 25.207031 82.042969 25.101562 C 82.214844 24.996094 82.457031 24.878906 82.765625 24.75 C 83.078125 24.617188 83.476562 24.464844 83.957031 24.292969 C 84.441406 24.125 85.027344 23.917969 85.714844 23.683594 C 85.589844 23.46875 85.390625 23.242188 85.117188 23.015625 C 84.847656 22.785156 84.496094 22.550781 84.070312 22.3125 C 83.769531 22.144531 83.488281 21.972656 83.234375 21.796875 C 82.980469 21.621094 82.761719 21.433594 82.582031 21.230469 C 82.402344 21.023438 82.269531 20.796875 82.195312 20.550781 C 82.117188 20.300781 82.105469 20.015625 82.160156 19.699219 C 82.21875 19.386719 82.34375 19.074219 82.546875 18.761719 C 82.75 18.453125 83.007812 18.160156 83.320312 17.878906 C 83.632812 17.59375 83.988281 17.324219 84.378906 17.070312 C 84.769531 16.816406 85.179688 16.589844 85.617188 16.382812 C 86.054688 16.175781 86.496094 15.996094 86.941406 15.847656 C 87.390625 15.699219 87.824219 15.582031 88.253906 15.503906 C 88.683594 15.425781 89.082031 15.382812 89.449219 15.382812 C 89.910156 15.382812 90.292969 15.453125 90.597656 15.589844 C 90.90625 15.726562 91.128906 15.925781 91.265625 16.179688 C 91.402344 16.433594 91.4375 16.738281 91.375 17.09375 C 91.300781 17.550781 91.101562 17.996094 90.773438 18.433594 C 90.445312 18.871094 90.003906 19.273438 89.460938 19.640625 C 89.429688 19.667969 89.386719 19.683594 89.332031 19.683594 C 89.273438 19.683594 89.222656 19.660156 89.179688 19.621094 C 89.136719 19.578125 89.117188 19.527344 89.117188 19.464844 C 89.117188 19.390625 89.148438 19.332031 89.214844 19.285156 C 89.714844 18.945312 90.113281 18.582031 90.40625 18.195312 C 90.699219 17.808594 90.882812 17.417969 90.953125 17.023438 C 91.023438 16.628906 90.929688 16.332031 90.667969 16.125 C 90.414062 15.917969 90.003906 15.816406 89.449219 15.816406 C 89.09375 15.816406 88.710938 15.855469 88.304688 15.933594 C 87.898438 16.007812 87.484375 16.113281 87.058594 16.25 C 86.636719 16.390625 86.222656 16.554688 85.8125 16.742188 C 85.402344 16.933594 85.011719 17.144531 84.644531 17.375 C 84.28125 17.605469 83.949219 17.847656 83.65625 18.113281 C 83.367188 18.375 83.125 18.644531 82.9375 18.921875 C 82.75 19.203125 82.632812 19.484375 82.578125 19.769531 C 82.523438 20.105469 82.554688 20.394531 82.679688 20.636719 C 82.804688 20.878906 83.007812 21.101562 83.28125 21.304688 C 83.558594 21.507812 83.894531 21.71875 84.285156 21.941406 C 85.242188 22.476562 85.855469 23.011719 86.125 23.550781 L 86.125 23.554688 C 86.125 23.554688 86.128906 23.554688 86.132812 23.554688 C 86.132812 23.554688 86.136719 23.554688 86.136719 23.554688 L 86.734375 23.351562 C 87.375 23.140625 88.082031 22.90625 88.851562 22.648438 C 89.621094 22.390625 90.460938 22.105469 91.363281 21.792969 C 91.386719 21.78125 91.410156 21.777344 91.4375 21.777344 Z M 82.886719 25.902344 C 83.160156 25.902344 83.4375 25.871094 83.71875 25.804688 C 84 25.738281 84.265625 25.648438 84.523438 25.53125 C 84.777344 25.414062 85.007812 25.285156 85.210938 25.136719 C 85.414062 24.992188 85.574219 24.84375 85.691406 24.683594 C 85.804688 24.523438 85.863281 24.367188 85.863281 24.214844 C 85.863281 24.195312 85.863281 24.175781 85.863281 24.160156 C 85.863281 24.140625 85.863281 24.121094 85.859375 24.101562 C 85.128906 24.347656 84.519531 24.558594 84.023438 24.734375 C 83.527344 24.914062 83.132812 25.0625 82.839844 25.183594 C 82.546875 25.308594 82.335938 25.414062 82.207031 25.5 C 82.078125 25.582031 82.015625 25.65625 82.015625 25.714844 C 82.015625 25.738281 82.058594 25.765625 82.140625 25.792969 C 82.230469 25.824219 82.339844 25.847656 82.476562 25.871094 C 82.609375 25.890625 82.746094 25.902344 82.886719 25.902344 Z M 82.886719 25.902344 " fill-opacity="1" fill-rule="nonzero"/><path fill="#ffffff" d="M 101.695312 18.082031 C 101.753906 18.089844 101.804688 18.113281 101.847656 18.152344 C 101.886719 18.195312 101.90625 18.242188 101.90625 18.300781 C 101.90625 18.363281 101.886719 18.414062 101.84375 18.457031 C 101.800781 18.5 101.75 18.519531 101.691406 18.519531 L 101.679688 18.519531 C 100.550781 18.472656 99.390625 18.449219 98.199219 18.449219 C 97.011719 18.449219 95.820312 18.476562 94.625 18.527344 C 93.507812 19.839844 92.40625 21.171875 91.324219 22.53125 C 90.242188 23.890625 89.203125 25.253906 88.207031 26.625 C 87.210938 27.992188 86.277344 29.351562 85.414062 30.703125 C 85.449219 30.757812 85.441406 30.832031 85.390625 30.925781 C 85.207031 31.238281 85.042969 31.390625 84.898438 31.390625 C 84.800781 31.390625 84.734375 31.359375 84.699219 31.300781 C 84.664062 31.246094 84.660156 31.167969 84.695312 31.066406 L 84.695312 31.058594 C 84.71875 30.992188 84.753906 30.921875 84.808594 30.84375 C 85.667969 29.484375 86.597656 28.113281 87.59375 26.730469 C 88.589844 25.351562 89.632812 23.972656 90.71875 22.601562 C 91.804688 21.226562 92.914062 19.878906 94.039062 18.550781 C 92.898438 18.605469 91.785156 18.679688 90.695312 18.773438 C 89.605469 18.863281 88.5625 18.972656 87.570312 19.101562 L 87.539062 19.101562 C 87.480469 19.101562 87.433594 19.082031 87.390625 19.039062 C 87.347656 18.996094 87.324219 18.945312 87.324219 18.886719 C 87.324219 18.828125 87.34375 18.78125 87.382812 18.738281 C 87.417969 18.695312 87.464844 18.671875 87.515625 18.667969 C 88.582031 18.53125 89.695312 18.417969 90.859375 18.324219 C 92.023438 18.230469 93.210938 18.15625 94.414062 18.101562 C 95.144531 17.257812 95.890625 16.402344 96.652344 15.542969 C 97.417969 14.679688 98.203125 13.816406 99.007812 12.945312 C 99.042969 12.898438 99.097656 12.871094 99.164062 12.871094 C 99.222656 12.871094 99.273438 12.894531 99.316406 12.9375 C 99.359375 12.976562 99.382812 13.027344 99.382812 13.089844 C 99.382812 13.152344 99.359375 13.199219 99.320312 13.230469 C 98.609375 14.003906 97.894531 14.796875 97.171875 15.609375 C 96.453125 16.417969 95.726562 17.242188 95.003906 18.078125 C 96.117188 18.039062 97.234375 18.019531 98.359375 18.019531 C 99.488281 18.019531 100.601562 18.039062 101.695312 18.082031 Z M 101.695312 18.082031 " fill-opacity="1" fill-rule="nonzero"/><path fill="#ffffff" d="M 102.789062 21.96875 C 102.84375 21.96875 102.894531 21.992188 102.9375 22.035156 C 102.984375 22.078125 103.007812 22.128906 103.007812 22.183594 C 103.007812 22.261719 102.976562 22.324219 102.910156 22.367188 C 102.683594 22.523438 102.421875 22.683594 102.132812 22.851562 C 101.84375 23.015625 101.535156 23.179688 101.214844 23.339844 C 100.894531 23.496094 100.574219 23.640625 100.253906 23.777344 C 99.929688 23.917969 99.621094 24.039062 99.320312 24.144531 C 99.023438 24.25 98.753906 24.335938 98.507812 24.398438 C 98.265625 24.457031 98.0625 24.488281 97.894531 24.488281 C 97.558594 24.488281 97.304688 24.414062 97.125 24.265625 C 96.949219 24.117188 96.859375 23.902344 96.859375 23.621094 C 96.859375 23.476562 96.882812 23.332031 96.933594 23.1875 C 96.988281 23.046875 97.070312 22.882812 97.183594 22.699219 C 97.214844 22.644531 97.222656 22.609375 97.207031 22.597656 C 97.195312 22.582031 97.164062 22.59375 97.121094 22.628906 C 96.976562 22.746094 96.8125 22.875 96.625 23.019531 C 96.4375 23.164062 96.242188 23.308594 96.035156 23.457031 C 95.832031 23.601562 95.632812 23.738281 95.4375 23.863281 C 95.246094 23.984375 95.066406 24.082031 94.90625 24.160156 C 94.746094 24.234375 94.617188 24.269531 94.523438 24.269531 C 94.378906 24.269531 94.261719 24.230469 94.179688 24.144531 C 94.089844 24.058594 94.046875 23.9375 94.046875 23.789062 C 94.046875 23.542969 94.183594 23.230469 94.460938 22.855469 C 94.734375 22.480469 95.128906 22.066406 95.640625 21.609375 C 95.679688 21.570312 95.730469 21.546875 95.785156 21.546875 C 95.84375 21.546875 95.890625 21.570312 95.9375 21.617188 C 95.980469 21.664062 96 21.710938 96 21.769531 C 96 21.84375 95.976562 21.898438 95.921875 21.925781 L 95.925781 21.921875 C 95.480469 22.328125 95.125 22.695312 94.867188 23.019531 C 94.613281 23.34375 94.484375 23.589844 94.484375 23.753906 C 94.484375 23.785156 94.492188 23.808594 94.507812 23.820312 C 94.519531 23.832031 94.535156 23.835938 94.546875 23.835938 C 94.691406 23.835938 94.960938 23.703125 95.355469 23.4375 C 95.75 23.171875 96.289062 22.761719 96.972656 22.207031 C 97.265625 21.972656 97.503906 21.78125 97.6875 21.632812 C 97.875 21.480469 98.023438 21.371094 98.132812 21.300781 C 98.242188 21.226562 98.328125 21.191406 98.390625 21.191406 C 98.582031 21.191406 98.667969 21.261719 98.648438 21.398438 C 98.632812 21.53125 98.503906 21.730469 98.269531 21.992188 C 98.167969 22.105469 98.0625 22.230469 97.945312 22.363281 C 97.835938 22.496094 97.726562 22.636719 97.628906 22.78125 C 97.527344 22.925781 97.445312 23.070312 97.382812 23.210938 C 97.320312 23.355469 97.289062 23.492188 97.289062 23.621094 C 97.289062 23.773438 97.335938 23.882812 97.429688 23.953125 C 97.523438 24.019531 97.679688 24.054688 97.894531 24.054688 C 98.035156 24.054688 98.21875 24.027344 98.445312 23.972656 C 98.667969 23.914062 98.917969 23.839844 99.199219 23.742188 C 99.476562 23.640625 99.769531 23.527344 100.074219 23.394531 C 100.382812 23.261719 100.6875 23.117188 100.992188 22.96875 C 101.304688 22.816406 101.601562 22.65625 101.882812 22.496094 C 102.171875 22.332031 102.433594 22.171875 102.667969 22.011719 C 102.699219 21.984375 102.738281 21.96875 102.789062 21.96875 Z M 102.789062 21.96875 " fill-opacity="1" fill-rule="nonzero"/><path fill="#ffffff" d="M 110.140625 21.984375 C 110.199219 21.984375 110.25 22.003906 110.289062 22.050781 C 110.332031 22.089844 110.355469 22.140625 110.355469 22.199219 C 110.355469 22.273438 110.320312 22.335938 110.253906 22.382812 C 109.878906 22.636719 109.492188 22.871094 109.085938 23.089844 C 108.679688 23.308594 108.273438 23.503906 107.867188 23.679688 C 107.460938 23.851562 107.070312 24 106.699219 24.121094 C 106.328125 24.242188 105.988281 24.339844 105.683594 24.40625 C 105.375 24.472656 105.117188 24.503906 104.910156 24.503906 C 104.574219 24.503906 104.320312 24.429688 104.140625 24.285156 C 103.960938 24.136719 103.875 23.917969 103.875 23.636719 C 103.875 23.433594 104.011719 23.082031 104.289062 22.59375 C 104.324219 22.535156 104.332031 22.503906 104.308594 22.488281 C 104.285156 22.472656 104.253906 22.488281 104.210938 22.53125 C 103.5 23.164062 102.925781 23.640625 102.492188 23.964844 C 102.058594 24.292969 101.773438 24.453125 101.632812 24.453125 C 101.488281 24.453125 101.375 24.417969 101.289062 24.339844 C 101.207031 24.265625 101.164062 24.160156 101.164062 24.027344 C 101.164062 23.851562 101.214844 23.664062 101.3125 23.464844 C 101.410156 23.265625 101.542969 23.066406 101.710938 22.863281 C 101.878906 22.664062 102.070312 22.476562 102.285156 22.296875 C 102.5 22.117188 102.726562 21.957031 102.964844 21.816406 C 103.199219 21.671875 103.4375 21.558594 103.671875 21.476562 C 103.90625 21.394531 104.125 21.351562 104.332031 21.351562 C 104.484375 21.351562 104.632812 21.378906 104.777344 21.433594 C 104.890625 21.332031 105.003906 21.222656 105.125 21.113281 C 105.246094 21 105.371094 20.886719 105.496094 20.769531 L 105.480469 20.773438 C 105.832031 20.285156 106.222656 19.761719 106.648438 19.203125 C 107.074219 18.644531 107.523438 18.078125 107.992188 17.496094 C 108.464844 16.917969 108.941406 16.339844 109.429688 15.769531 C 109.914062 15.195312 110.394531 14.648438 110.867188 14.121094 C 111.339844 13.59375 111.789062 13.109375 112.222656 12.660156 C 112.65625 12.210938 113.050781 11.820312 113.40625 11.484375 C 113.765625 11.144531 114.074219 10.882812 114.335938 10.695312 C 114.59375 10.507812 114.789062 10.414062 114.917969 10.414062 C 115.21875 10.414062 115.367188 10.554688 115.367188 10.832031 C 115.367188 10.921875 115.285156 11.089844 115.117188 11.328125 C 114.957031 11.570312 114.726562 11.867188 114.429688 12.222656 C 114.132812 12.582031 113.78125 12.980469 113.378906 13.429688 C 112.976562 13.875 112.535156 14.351562 112.054688 14.859375 C 111.574219 15.363281 111.070312 15.886719 110.542969 16.429688 C 110.015625 16.96875 109.476562 17.515625 108.925781 18.058594 C 108.375 18.605469 107.828125 19.136719 107.285156 19.664062 C 106.742188 20.1875 106.21875 20.6875 105.710938 21.160156 C 105.621094 21.285156 105.539062 21.40625 105.457031 21.523438 C 105.375 21.640625 105.296875 21.753906 105.222656 21.863281 C 105.253906 21.925781 105.273438 21.996094 105.285156 22.0625 C 105.296875 22.132812 105.296875 22.203125 105.289062 22.269531 C 105.285156 22.324219 105.261719 22.375 105.21875 22.414062 C 105.175781 22.457031 105.128906 22.476562 105.074219 22.476562 C 104.992188 22.476562 104.933594 22.441406 104.894531 22.378906 C 104.5 23.011719 104.304688 23.433594 104.304688 23.636719 C 104.304688 23.792969 104.347656 23.902344 104.441406 23.972656 C 104.535156 24.035156 104.691406 24.070312 104.910156 24.070312 C 105.101562 24.070312 105.34375 24.039062 105.636719 23.976562 C 105.925781 23.910156 106.25 23.820312 106.605469 23.703125 C 106.960938 23.585938 107.332031 23.441406 107.722656 23.273438 C 108.109375 23.105469 108.496094 22.914062 108.890625 22.699219 C 109.28125 22.488281 109.660156 22.261719 110.023438 22.015625 C 110.054688 21.996094 110.09375 21.984375 110.140625 21.984375 Z M 114.917969 10.851562 C 114.832031 10.851562 114.683594 10.929688 114.476562 11.089844 C 114.265625 11.246094 114.007812 11.472656 113.703125 11.765625 C 113.394531 12.054688 113.050781 12.398438 112.671875 12.796875 C 112.289062 13.191406 111.882812 13.632812 111.449219 14.113281 C 111.015625 14.589844 110.570312 15.101562 110.109375 15.636719 C 109.644531 16.171875 109.179688 16.722656 108.710938 17.292969 C 108.242188 17.859375 107.785156 18.429688 107.335938 19.003906 C 107.59375 18.757812 107.882812 18.472656 108.199219 18.152344 C 108.519531 17.835938 108.863281 17.496094 109.222656 17.132812 C 109.582031 16.765625 109.949219 16.390625 110.324219 16.007812 C 110.699219 15.621094 111.078125 15.234375 111.453125 14.847656 C 111.828125 14.460938 112.183594 14.085938 112.527344 13.71875 C 112.871094 13.355469 113.1875 13.011719 113.484375 12.691406 C 113.777344 12.371094 114.03125 12.082031 114.25 11.832031 C 114.46875 11.578125 114.640625 11.371094 114.761719 11.207031 C 114.882812 11.042969 114.945312 10.933594 114.945312 10.878906 C 114.945312 10.859375 114.9375 10.851562 114.917969 10.851562 Z M 101.65625 24.023438 C 101.742188 24.023438 102.023438 23.828125 102.5 23.441406 C 102.976562 23.054688 103.609375 22.5 104.394531 21.78125 L 104.332031 21.78125 C 104.167969 21.78125 103.988281 21.816406 103.789062 21.890625 C 103.589844 21.960938 103.386719 22.0625 103.179688 22.183594 C 102.976562 22.308594 102.78125 22.445312 102.59375 22.597656 C 102.40625 22.746094 102.238281 22.90625 102.085938 23.070312 C 101.9375 23.234375 101.820312 23.394531 101.730469 23.550781 C 101.640625 23.707031 101.59375 23.847656 101.59375 23.972656 C 101.59375 24.007812 101.617188 24.023438 101.65625 24.023438 Z M 101.65625 24.023438 " fill-opacity="1" fill-rule="nonzero"/><path fill="#ffffff" d="M 111.492188 20.988281 C 111.429688 20.988281 111.378906 20.96875 111.335938 20.929688 C 111.296875 20.886719 111.277344 20.832031 111.277344 20.773438 C 111.277344 20.726562 111.289062 20.683594 111.324219 20.644531 L 111.675781 20.179688 C 111.71875 20.128906 111.773438 20.105469 111.839844 20.105469 C 111.898438 20.105469 111.953125 20.125 111.992188 20.167969 C 112.035156 20.210938 112.058594 20.261719 112.058594 20.320312 C 112.058594 20.367188 112.039062 20.410156 112.007812 20.457031 C 111.980469 20.484375 111.941406 20.53125 111.894531 20.601562 C 111.847656 20.667969 111.800781 20.726562 111.757812 20.777344 C 111.738281 20.808594 111.722656 20.832031 111.703125 20.855469 C 111.6875 20.871094 111.675781 20.890625 111.664062 20.90625 C 111.621094 20.960938 111.5625 20.988281 111.492188 20.988281 Z M 109.753906 24.640625 C 109.5 24.640625 109.300781 24.574219 109.160156 24.441406 C 109.019531 24.304688 108.945312 24.117188 108.945312 23.878906 C 108.945312 23.632812 109.09375 23.289062 109.386719 22.851562 C 109.675781 22.410156 110.085938 21.917969 110.613281 21.375 C 110.65625 21.332031 110.710938 21.308594 110.769531 21.308594 C 110.824219 21.308594 110.875 21.332031 110.917969 21.375 C 110.964844 21.417969 110.988281 21.46875 110.988281 21.523438 C 110.988281 21.578125 110.972656 21.625 110.933594 21.667969 L 110.929688 21.675781 C 110.621094 21.988281 110.351562 22.289062 110.117188 22.582031 C 109.886719 22.875 109.707031 23.132812 109.574219 23.355469 C 109.441406 23.582031 109.378906 23.753906 109.378906 23.878906 C 109.378906 23.996094 109.40625 24.082031 109.460938 24.136719 C 109.519531 24.183594 109.613281 24.210938 109.753906 24.210938 C 109.886719 24.210938 110.070312 24.175781 110.300781 24.113281 C 110.535156 24.046875 110.796875 23.957031 111.09375 23.84375 C 111.390625 23.730469 111.699219 23.601562 112.027344 23.457031 C 112.355469 23.308594 112.683594 23.152344 113.015625 22.992188 C 113.34375 22.824219 113.660156 22.660156 113.960938 22.496094 C 114.261719 22.328125 114.53125 22.167969 114.773438 22.015625 C 114.820312 21.996094 114.855469 21.988281 114.886719 21.988281 C 114.941406 21.988281 114.992188 22.011719 115.035156 22.054688 C 115.078125 22.097656 115.101562 22.148438 115.101562 22.203125 C 115.101562 22.289062 115.066406 22.351562 114.996094 22.390625 C 114.757812 22.542969 114.480469 22.703125 114.171875 22.875 C 113.863281 23.042969 113.539062 23.210938 113.199219 23.378906 C 112.855469 23.550781 112.515625 23.710938 112.171875 23.863281 C 111.828125 24.011719 111.503906 24.148438 111.191406 24.265625 C 110.878906 24.382812 110.597656 24.472656 110.347656 24.539062 C 110.101562 24.605469 109.902344 24.640625 109.753906 24.640625 Z M 109.753906 24.640625 " fill-opacity="1" fill-rule="nonzero"/><path fill="#ffffff" d="M 120.765625 21.988281 C 120.820312 21.988281 120.871094 22.011719 120.914062 22.054688 C 120.957031 22.097656 120.980469 22.148438 120.980469 22.203125 C 120.980469 22.289062 120.941406 22.351562 120.867188 22.394531 C 120.511719 22.601562 120.117188 22.746094 119.6875 22.835938 C 119.257812 22.925781 118.816406 22.957031 118.359375 22.929688 C 117.902344 22.902344 117.449219 22.820312 117 22.6875 C 116.550781 22.550781 116.128906 22.359375 115.726562 22.113281 C 115.753906 22.339844 115.742188 22.574219 115.695312 22.816406 C 115.652344 23.058594 115.578125 23.292969 115.472656 23.515625 C 115.367188 23.742188 115.238281 23.945312 115.09375 24.125 C 114.945312 24.308594 114.789062 24.449219 114.617188 24.550781 C 114.449219 24.65625 114.277344 24.710938 114.101562 24.710938 C 113.933594 24.710938 113.792969 24.648438 113.6875 24.523438 C 113.582031 24.398438 113.527344 24.230469 113.527344 24.023438 C 113.527344 23.769531 113.597656 23.503906 113.742188 23.230469 C 113.882812 22.957031 114.078125 22.6875 114.332031 22.429688 C 114.585938 22.167969 114.875 21.9375 115.203125 21.738281 C 115.214844 21.730469 115.222656 21.71875 115.234375 21.707031 C 115.25 21.636719 115.296875 21.582031 115.363281 21.546875 C 115.433594 21.511719 115.503906 21.5 115.574219 21.519531 C 115.59375 21.523438 115.609375 21.523438 115.621094 21.519531 C 115.679688 21.488281 115.742188 21.460938 115.808594 21.433594 C 115.878906 21.410156 115.945312 21.386719 116.011719 21.363281 C 116.046875 21.355469 116.070312 21.351562 116.085938 21.351562 C 116.140625 21.351562 116.191406 21.371094 116.234375 21.417969 C 116.28125 21.460938 116.300781 21.511719 116.300781 21.566406 C 116.300781 21.675781 116.25 21.746094 116.152344 21.777344 C 116.140625 21.78125 116.125 21.785156 116.113281 21.785156 C 116.101562 21.789062 116.089844 21.792969 116.082031 21.800781 C 116.074219 21.800781 116.070312 21.804688 116.066406 21.804688 C 116.433594 22.015625 116.816406 22.179688 117.214844 22.292969 C 117.617188 22.410156 118.023438 22.476562 118.429688 22.5 C 118.839844 22.519531 119.234375 22.488281 119.609375 22.410156 C 119.988281 22.332031 120.335938 22.203125 120.65625 22.027344 C 120.6875 22 120.722656 21.988281 120.765625 21.988281 Z M 114.101562 24.28125 C 114.21875 24.28125 114.335938 24.238281 114.460938 24.148438 C 114.582031 24.0625 114.695312 23.945312 114.804688 23.796875 C 114.914062 23.648438 115.007812 23.480469 115.085938 23.296875 C 115.167969 23.113281 115.226562 22.925781 115.265625 22.734375 C 115.304688 22.539062 115.316406 22.355469 115.296875 22.183594 C 115.035156 22.355469 114.804688 22.550781 114.601562 22.761719 C 114.398438 22.976562 114.242188 23.191406 114.132812 23.410156 C 114.015625 23.628906 113.957031 23.832031 113.957031 24.023438 C 113.957031 24.195312 114.007812 24.28125 114.101562 24.28125 Z M 114.101562 24.28125 " fill-opacity="1" fill-rule="nonzero"/></svg>